<svg xmlns="http://www.w3.org/2000/svg" width="34" height="32" fill="none" viewBox="0 0 34 32">
    <path fill="#AAB4BF" fill-rule="evenodd" d="M14.657 5a3 3 0 0 0-2.121.879l-1.657 1.657A5 5 0 0 1 7.343 9H5a3.001 3.001 0 0 0-2.83 2H12v2H2v7a1 1 0 1 1-2 0v-8a5 5 0 0 1 5-5V6a1 1 0 0 1 2 0v1h.343a3 3 0 0 0 2.121-.879l1.657-1.657A5 5 0 0 1 14.657 3h4.686a5 5 0 0 1 3.536 1.464l1.656 1.657A3 3 0 0 0 26.657 7H29a5 5 0 0 1 5 5v12a5 5 0 0 1-5 5H5a5 5 0 0 1-5-5 1 1 0 0 1 1-1h31V12a3 3 0 0 0-3-3h-2.343a5 5 0 0 1-3.536-1.464l-1.656-1.657A3 3 0 0 0 19.343 5h-4.686zM2.17 25h29.658A3.001 3.001 0 0 1 29 27H5a3.001 3.001 0 0 1-2.83-2zM22 11a1 1 0 1 0 0 2h7a1 1 0 1 0 0-2h-7z" clip-rule="evenodd"/>
    <path fill="#FF4B1F" fill-rule="evenodd" d="M11 17a6 6 0 1 1 12 0 6 6 0 0 1-12 0zm6-8a8 8 0 1 0 0 16 8 8 0 0 0 0-16zm0 4a1 1 0 1 0 0 2 2 2 0 0 1 2 2 1 1 0 1 0 2 0 4 4 0 0 0-4-4z" clip-rule="evenodd"/>
</svg>
