<svg xmlns="http://www.w3.org/2000/svg" width="34" height="34" fill="none" viewBox="0 0 34 34">
    <path fill="#F5F0EB" fill-rule="evenodd" d="M17 2C8.716 2 2 8.716 2 17c0 5.55 3.014 10.398 7.5 12.993a1 1 0 0 1-1.002 1.731C3.42 28.786 0 23.294 0 17 0 7.611 7.611 0 17 0s17 7.611 17 17-7.611 17-17 17a1 1 0 1 1 0-2c8.284 0 15-6.716 15-15 0-8.284-6.716-15-15-15zm1 3a1 1 0 1 1-2 0 1 1 0 0 1 2 0zm-1 25a1 1 0 1 0 0-2 1 1 0 0 0 0 2zm12-12a1 1 0 1 1 0-2 1 1 0 0 1 0 2zM4 17a1 1 0 1 0 2 0 1 1 0 0 0-2 0z" clip-rule="evenodd"/>
    <path fill="#FF4B1F" fill-rule="evenodd" d="M20.351 8.064a1 1 0 0 1 .585 1.287l-2.773 7.397 2.544 2.545a1 1 0 1 1-1.414 1.414l-3-3a1 1 0 0 1-.23-1.058l3-8a1 1 0 0 1 1.288-.585z" clip-rule="evenodd"/>
</svg>
