<svg xmlns="http://www.w3.org/2000/svg" width="64" height="65" fill="none" viewBox="0 0 64 65">
    <path fill="#fff" d="M64 33c0 17.673-14.327 32-32 32C14.327 65 0 50.673 0 33 0 15.327 14.327 1 32 1c17.673 0 32 14.327 32 32z"/>
    <path fill="#F5F0EB" fill-rule="evenodd" d="M9 33c0-12.703 10.297-23 23-23a1 1 0 1 0 0-2C18.193 8 7 19.193 7 33s11.193 25 25 25 25-11.193 25-25a1 1 0 1 0-2 0c0 12.703-10.297 23-23 23S9 45.703 9 33zm4 0c0-10.493 8.507-19 19-19s19 8.507 19 19-8.507 19-19 19c-3.463 0-6.707-.926-9.5-2.542a1 1 0 0 0-1.003 1.731A20.908 20.908 0 0 0 32 54c11.598 0 21-9.402 21-21s-9.402-21-21-21-21 9.402-21 21c0 5.799 2.352 11.05 6.15 14.85a1 1 0 1 0 1.415-1.415A18.937 18.937 0 0 1 13 33z" clip-rule="evenodd"/>
    <path fill="#fff" d="M48 49V1H37.654L22 12.593l5.845 8.068 8.868-6.915V49H48z"/>
    <path fill="#FF4B1F" fill-rule="evenodd" d="M37.059.196A1 1 0 0 1 37.654 0H48a1 1 0 0 1 1 1v31.66a1 1 0 1 1-2 0V2h-9.016L23.39 12.808l4.657 6.427 8.051-6.278a1 1 0 0 1 1.615.789V48H47v-7.17a1 1 0 1 1 2 0V49a1 1 0 0 1-1 1H36.713a1 1 0 0 1-1-1V15.794L28.46 21.45a1 1 0 0 1-1.425-.202L21.19 13.18a1 1 0 0 1 .215-1.39L37.059.196z" clip-rule="evenodd"/>
</svg>
