<svg xmlns="http://www.w3.org/2000/svg" width="130" height="128" fill="none" viewBox="0 0 130 128">
    <path fill="#FF4B1F" fill-rule="evenodd" d="M64.565 8a1 1 0 0 1 1 1v12a1 1 0 1 1-2 0V9a1 1 0 0 1 1-1zm-16.5 8.421a1 1 0 0 1 1.366.366l4 6.928a1 1 0 1 1-1.732 1l-4-6.928a1 1 0 0 1 .366-1.366zm33.366 1.366a1 1 0 1 0-1.732-1l-4 6.928a1 1 0 1 0 1.732 1l4-6.928z" clip-rule="evenodd"/>
    <path fill="#F5F0EB" fill-rule="evenodd" d="M8.367 72.543a4 4 0 1 1 6.928 4 4 4 0 0 1-6.928-4zm4.464.268a2 2 0 1 0-2 3.465 2 2 0 0 0 2-3.465z" clip-rule="evenodd"/>
    <path fill="#F5F0EB" fill-rule="evenodd" d="M99.573 29.751a5 5 0 0 0-3.14 5.915l-.175.083a28.656 28.656 0 0 1-4.917 1.813c-1.828.49-3.696.817-5.582.976l-25.013 2.111-.018.002c-3.909.471-6.74 1.362-9.02 2.805a.994.994 0 0 0-.077.004c-.777.068-2.113.141-3.763.231h-.005l-1.433.08c-1.704.095-3.612.208-5.486.348l.047-.083a5 5 0 0 0-1.83-6.83l-8.66-5a5 5 0 0 0-6.83 1.83l-23 39.837a5 5 0 0 0 1.83 6.83l8.66 5a5 5 0 0 0 6.83-1.83l.098-.17 3.016 5.674-1.935 3.05a7.855 7.855 0 0 0 11.366 10.478 7.668 7.668 0 0 0 3.838 6.593 7.676 7.676 0 0 0 8.45-.51 6.635 6.635 0 0 0 3.308 6.144 6.636 6.636 0 0 0 7.246-.396 5.566 5.566 0 0 0 10.616 2.545l.858-1.857c.13-.279.232-.564.31-.852l6.755 3.9a6 6 0 0 0 8.634-7.259 7.002 7.002 0 0 0 7.142-9.778 8.001 8.001 0 0 0 8.495-10.621 8.002 8.002 0 0 0 10.286-10.581l5.326-1.427a.992.992 0 0 0 .265-.114l.252.694a5 5 0 0 0 6.409 2.988l7.564-2.753a5 5 0 0 0 2.988-6.409l-2.735-7.515h-.001a1 1 0 0 0-1.867.718l2.724 7.481a3 3 0 0 1-1.793 3.846l-7.564 2.753a3 3 0 0 1-3.845-1.793L98.464 35.476a3 3 0 0 1 1.793-3.845l7.564-2.753a3 3 0 0 1 3.845 1.793l6.032 16.572.008.023a1.001 1.001 0 0 0 1.867-.719l-6.028-16.56a5 5 0 0 0-6.408-2.989l-7.564 2.753zm-76.2 59.785l.063-.034-.019-.036 3.072-4.843a5.635 5.635 0 0 1 9.639 5.837l-5.255 9.102a5.855 5.855 0 1 1-10.014-6.063l2.514-3.963zm-1.036-2.101l-3.069-5.774 20.462-35.44c2.27-.19 4.688-.335 6.812-.453l1.397-.077.026-.002 1.071-.059c-2.148 2.193-3.83 5.106-5.915 8.717l-.068.117c-1.81 3.138-2.398 5.7-2.06 7.77.346 2.109 1.621 3.524 3.123 4.39.932.54 1.898.943 2.955 1.043 1.072.102 2.154-.116 3.306-.681 2.235-1.098 4.844-3.568 8.433-7.843 1.186-1.413 2.416-2.192 3.566-2.482 1.136-.287 2.276-.119 3.364.51l.692.399a1 1 0 0 0 1.059-1.696l.001-.002-.752-.434c-1.51-.872-3.182-1.138-4.852-.717-1.655.417-3.225 1.486-4.61 3.137-3.593 4.28-5.966 6.44-7.783 7.332-.874.43-1.587.548-2.235.486-.664-.063-1.345-.322-2.144-.783-1.097-.633-1.92-1.584-2.148-2.982-.236-1.438.129-3.521 1.817-6.447 2.401-4.157 4.07-7.029 6.325-9.052 2.193-1.97 5.014-3.19 9.84-3.773l24.977-2.108c2.004-.17 3.99-.516 5.932-1.037a30.662 30.662 0 0 0 5.237-1.929l14.299 39.286a1.008 1.008 0 0 0-.113.023l-5.464 1.464a1.007 1.007 0 0 0-.347.17 7.969 7.969 0 0 0-2.358-2.07l-19.053-11-.009-.005-4.17-2.407a1 1 0 0 0-1.038 1.708v.001l.022.013.008.005 5.053 2.917.01.006 18.177 10.494a6 6 0 1 1-6 10.392l-3.434-1.982-.03-.017-9.526-5.5a1 1 0 1 0-1 1.731l1.72.994.012.007 7.82 4.515a6 6 0 0 1-6.026 10.377l-9.526-5.5a1 1 0 1 0-1 1.732l.851.492.015.008 7.794 4.5a5 5 0 0 1-5 8.66l-8.66-5a1 1 0 0 0-1 1.732l2.592 1.497.006.003 5.196 3a4 4 0 0 1-4 6.929l-7.633-4.407a5.381 5.381 0 0 0-7.978-3.842l.327-.659a6.322 6.322 0 0 0-9.204-8.052l.28-.543a7.292 7.292 0 0 0-10.064-9.695 7.635 7.635 0 0 0-13.845-5.99l-2.463 3.883zm15.824-48.497a3 3 0 0 1 1.098 4.098l-23 39.837a3 3 0 0 1-4.098 1.099l-8.66-5a3 3 0 0 1-1.098-4.099l23-39.837a3 3 0 0 1 4.098-1.098l8.66 5zm-2.787 68.828a5.674 5.674 0 0 0 7.88-2.314l3.678-7.132a5.292 5.292 0 0 0-9.157-5.286l-4.338 6.75a5.675 5.675 0 0 0 1.937 7.982zm18.229 3.682a4.637 4.637 0 1 1-8.016-4.628l2.783-4.192a4.323 4.323 0 0 1 7.472 4.314l-2.24 4.506zm3.555 6.586a3.567 3.567 0 0 0 5.02-1.592l.859-1.857a3.38 3.38 0 0 0-5.83-3.366l-1.18 1.671a3.567 3.567 0 0 0 1.131 5.144z" clip-rule="evenodd"/>
</svg>
