<svg xmlns="http://www.w3.org/2000/svg" width="90" height="16" fill="none" viewBox="0 0 90 16">
    <g fill="#fff" clip-path="url(#a)">
        <path d="M36.105 13.579h-.043c-.897-2.635-1.132-3.115-5.307-13.259h-2.82l6.61 15.36h2.948L44.199.32h-2.712c-1.239 2.944-4.71 11.083-5.382 13.259zM48.396.32h-2.563v15.35h2.563V.32zM57.964.32c-4.271 0-6.877 2.037-6.877 6.955v8.405h2.541V7.296c0-3.68 1.623-4.896 4.25-4.896 2.211 0 4.422 1.035 4.422 4.896v8.384h2.562V7.125C64.852 2.357 62.15.32 57.964.32zM70.138.32h-2.563v15.35h2.563V.32zM71.772 2.421h5.766V15.68h2.53V2.421h5.746V.32H71.772v2.101zM90.01.32h-2.562v15.35h2.563V.32zM19.862 0c-5.5 0-8.073 4.16-8.2 7.627.031 1.141-.161 2.517-.855 3.648-.897 1.472-2.51 2.346-4.838 2.346H2.563V2.38c3.716 0 4.229-.064 5.307.192 1.485.352 2.414 1.162 2.969 2.069a9.336 9.336 0 0 1 1.27-2.357C11.086 1.344 9.676.65 7.87.405 6.888.288 6.952.32 0 .32v15.36h6.418c3.962 0 7.176-2.379 7.827-6.4H27.85C28.576 4.256 25.159 0 19.862 0zm-5.456 7.21c.17-1.749 1.292-5.13 5.318-5.13 4.752 0 5.403 4.341 5.488 5.13H14.406z"/>
        <path d="M19.467 13.91c-2.029-.129-3.46-1.174-4.282-2.667a8.862 8.862 0 0 1-1.345 2.41c1.345 1.387 3.267 2.262 5.627 2.336 6.012.107 7.657-4.298 7.721-4.437l-2.595-.48c-1.442 2.955-4.346 2.89-5.126 2.837z"/>
    </g>
    <defs>
        <clipPath id="a">
            <path fill="#fff" d="M0 0h90v16H0z"/>
        </clipPath>
    </defs>
</svg>
