<svg xmlns="http://www.w3.org/2000/svg" width="363" height="96" fill="none" viewBox="0 0 363 96">
    <path fill="#FF4B1F" d="M20.059 92.669v3.05H2.419v-2.384l9.995-9.644c1.216-1.169 2.034-2.174 2.455-3.016.42-.865.631-1.73.631-2.595 0-1.285-.456-2.279-1.368-2.98-.888-.725-2.174-1.087-3.857-1.087-2.712 0-4.804.888-6.277 2.665l-2.385-2.07c.959-1.168 2.21-2.08 3.752-2.735 1.567-.654 3.308-.982 5.226-.982 2.571 0 4.617.62 6.136 1.86 1.52 1.215 2.28 2.875 2.28 4.979 0 1.309-.28 2.548-.842 3.717-.561 1.169-1.625 2.501-3.191 3.998l-7.505 7.224h12.59zM32.869 96c-1.94 0-3.67-.491-5.19-1.473-1.497-1.005-2.677-2.455-3.542-4.348-.865-1.894-1.298-4.138-1.298-6.733 0-2.595.433-4.84 1.298-6.733.865-1.894 2.045-3.332 3.542-4.314 1.52-1.005 3.25-1.508 5.19-1.508 1.917 0 3.623.503 5.12 1.508 1.52.982 2.712 2.42 3.577 4.314.864 1.893 1.297 4.138 1.297 6.733 0 2.595-.432 4.84-1.297 6.733-.866 1.893-2.058 3.343-3.578 4.348-1.496.982-3.202 1.473-5.12 1.473zm0-3.121c1.964 0 3.53-.807 4.699-2.42 1.192-1.613 1.788-3.95 1.788-7.013 0-3.063-.596-5.4-1.788-7.014-1.17-1.613-2.735-2.42-4.7-2.42-1.987 0-3.576.807-4.769 2.42-1.169 1.613-1.753 3.951-1.753 7.014 0 3.062.584 5.4 1.753 7.013 1.193 1.613 2.782 2.42 4.77 2.42zM53.736 71.172v24.547h-3.471V74.224h-5.541v-3.051h9.012zM67.066 70.891c3.296 0 5.833 1.064 7.61 3.192 1.8 2.127 2.7 5.143 2.7 9.047 0 2.735-.491 5.073-1.473 7.014-.958 1.917-2.314 3.378-4.068 4.383C70.105 95.51 68.083 96 65.77 96c-1.193 0-2.315-.117-3.367-.35-1.052-.258-1.964-.62-2.735-1.088l1.332-2.735c1.193.771 2.77 1.157 4.735 1.157 2.548 0 4.535-.783 5.961-2.35 1.45-1.59 2.174-3.892 2.174-6.908v-.876c-.701 1.052-1.671 1.858-2.91 2.42-1.24.537-2.63.806-4.174.806-1.613 0-3.062-.304-4.348-.912-1.262-.608-2.256-1.473-2.98-2.595-.702-1.145-1.053-2.455-1.053-3.928 0-1.543.374-2.898 1.122-4.067.772-1.17 1.812-2.07 3.121-2.7 1.31-.655 2.783-.983 4.419-.983zm.316 12.344c1.098 0 2.08-.21 2.945-.63.865-.422 1.532-.995 2-1.72a4.219 4.219 0 0 0 .736-2.419c0-.865-.234-1.648-.702-2.35-.444-.724-1.11-1.297-1.999-1.718-.865-.444-1.917-.666-3.156-.666-1.613 0-2.922.433-3.927 1.297-.982.865-1.473 2.023-1.473 3.472 0 1.45.503 2.607 1.508 3.472 1.005.841 2.361 1.262 4.068 1.262z"/>
    <path fill="#fff" d="M15.85 57.792c-3.32 0-6.358-.632-9.117-1.894-2.712-1.216-4.956-2.969-6.733-5.26l6.172-7.575c2.665 3.6 5.68 5.4 9.047 5.4 4.676 0 7.014-2.711 7.014-8.135V9.959H5.05V.842h28.545v38.855c0 6.031-1.496 10.543-4.489 13.536-2.992 3.04-7.41 4.559-13.255 4.559zM61.652 9.96v30.859h8.486v9.117H41.733V40.82h8.557V9.959h-8.557V.842h28.405v9.117h-8.486zM110.003 49.937l-9.468-13.677H90.084v13.677H78.724V.842h21.25c4.349 0 8.113.724 11.293 2.174 3.226 1.45 5.704 3.507 7.434 6.172 1.73 2.665 2.595 5.821 2.595 9.468 0 3.647-.888 6.803-2.665 9.468-1.73 2.619-4.208 4.63-7.434 6.032l11.011 15.78h-12.204zm-.21-31.28c0-2.76-.889-4.864-2.665-6.313-1.777-1.496-4.372-2.244-7.785-2.244h-9.258v17.113h9.258c3.413 0 6.008-.748 7.785-2.245 1.776-1.496 2.665-3.6 2.665-6.312zM152.39 0c4.535 0 8.486.888 11.853 2.665 3.366 1.777 5.985 4.395 7.855 7.855 1.87 3.46 2.805 7.645 2.805 12.555v26.862h-11.362V38.154h-22.443v11.782h-11.222V23.076c0-4.91.935-9.095 2.806-12.555 1.87-3.46 4.488-6.078 7.855-7.855C143.903.888 147.854 0 152.39 0zm11.151 29.036v-7.013c0-4.068-1.005-7.13-3.016-9.188-2.01-2.104-4.745-3.156-8.205-3.156-3.507 0-6.266 1.052-8.276 3.156-1.964 2.057-2.946 5.12-2.946 9.188v7.013h22.443zM205.98.842h22.304c5.33 0 10.029 1.028 14.097 3.086 4.114 2.01 7.294 4.862 9.538 8.556 2.291 3.694 3.437 7.996 3.437 12.905 0 4.91-1.146 9.211-3.437 12.905-2.244 3.694-5.424 6.57-9.538 8.627-4.068 2.01-8.767 3.016-14.097 3.016H205.98V.842zm21.742 39.766c4.91 0 8.814-1.355 11.713-4.067 2.946-2.759 4.419-6.476 4.419-11.152 0-4.676-1.473-8.37-4.419-11.081-2.899-2.759-6.803-4.138-11.713-4.138h-10.38v30.439h10.38zM286.017 0c4.536 0 8.487.888 11.853 2.665 3.367 1.777 5.985 4.395 7.855 7.855 1.871 3.46 2.806 7.645 2.806 12.555v26.862h-11.362V38.154h-22.444v11.782h-11.221V23.076c0-4.91.935-9.095 2.805-12.555 1.87-3.46 4.489-6.078 7.855-7.855C277.531.888 281.482 0 286.017 0zm11.152 29.036v-7.013c0-4.068-1.006-7.13-3.016-9.188-2.011-2.104-4.746-3.156-8.206-3.156-3.507 0-6.265 1.052-8.276 3.156-1.964 2.057-2.946 5.12-2.946 9.188v7.013h22.444zM362.279.842v33.735c0 7.387-2.058 13.045-6.172 16.973-4.115 3.974-9.796 5.961-17.043 5.961-4.162 0-7.972-.584-11.432-1.753-3.46-1.122-6.406-2.736-8.837-4.84l4.418-8.416c4.442 3.6 9.632 5.4 15.57 5.4 4.115 0 7.154-1.028 9.118-3.085 2.01-2.105 3.016-5.33 3.016-9.68v-3.015c-3.273 4.021-7.902 6.032-13.887 6.032-6.219 0-11.011-1.754-14.378-5.26-3.32-3.554-4.98-8.65-4.98-15.29V.842h11.362v16.06c0 3.835.912 6.734 2.736 8.697 1.823 1.964 4.395 2.946 7.715 2.946 3.506 0 6.288-1.029 8.346-3.086 2.057-2.057 3.086-5.166 3.086-9.328V.841h11.362z"/>
</svg>
