<svg xmlns="http://www.w3.org/2000/svg" width="130" height="128" fill="none" viewBox="0 0 130 128">
    <path fill="#F5F0EB" fill-rule="evenodd" d="M41 37c-.458 0-.892.103-1.28.286L81.235 67.48a3 3 0 0 0 3.528 0l41.517-30.194A2.991 2.991 0 0 0 125 37H65a1 1 0 1 1 0-2h60a5 5 0 0 1 5 5v48a5 5 0 0 1-5 5H41a5 5 0 0 1-5-5V40a5 5 0 0 1 5-5h4a1 1 0 1 1 0 2h-4zm-3 3c0-.463.105-.902.292-1.293.037.036.077.07.12.102l27.825 20.236-28.194 29.464A3.013 3.013 0 0 1 38 88V40zm1.087 50.31c.519.431 1.186.69 1.913.69h84a3 3 0 0 0 3-3V40c0-.463-.105-.902-.292-1.293-.037.036-.077.07-.12.102L99.763 59.045l21.544 22.514a1 1 0 0 1-1.445 1.382l-21.73-22.709-12.191 8.866a5 5 0 0 1-5.882 0l-12.19-8.866-28.782 30.079z" clip-rule="evenodd"/>
    <path fill="#FF4B1F" fill-rule="evenodd" d="M15 55a1 1 0 1 0 0 2h16a1 1 0 1 0 0-2H15zM1 79a1 1 0 1 0 0 2h24a1 1 0 1 0 0-2H1zm27-5a1 1 0 0 1 1-1h8a1 1 0 1 1 0 2h-8a1 1 0 0 1-1-1zM9 63a1 1 0 1 0 0 2h40a1 1 0 1 0 0-2H9z" clip-rule="evenodd"/>
</svg>
