<svg xmlns="http://www.w3.org/2000/svg" width="66" height="64" fill="none" viewBox="0 0 66 64">
    <path fill="#AAB4BF" d="M16 26a1 1 0 1 0-2 0v6a1 1 0 1 0 2 0v-6zM11 25a1 1 0 0 1 1 1v6a1 1 0 1 1-2 0v-6a1 1 0 0 1 1-1z"/>
    <path fill="#AAB4BF" fill-rule="evenodd" d="M42 11a3 3 0 1 1 6 0v36a3 3 0 1 1-6 0v-1.57a9.967 9.967 0 0 0-.705-.559c-.716-.52-1.857-1.234-3.507-1.955-2.744-1.197-6.914-2.42-12.915-2.798a5.328 5.328 0 0 1-.861 1.966c-.65.903-1.653 1.623-3.07 1.845l1.469 7.835a3.577 3.577 0 0 1-6.93 1.726l-4.272-13.668A9.011 9.011 0 0 1 4.223 33H4a4 4 0 0 1 0-8h.223c.91-4.008 4.494-7 8.777-7h8.003c8.125 0 13.486-1.477 16.785-2.916 1.65-.721 2.79-1.434 3.507-1.955.313-.228.546-.42.705-.56V11zM20.573 41.962c.92-.128 1.468-.563 1.816-1.046.2-.279.343-.588.44-.89A64.411 64.411 0 0 0 21.003 40h-.798l.368 1.962zM13.36 40h4.81l2.275 12.132a1.577 1.577 0 0 1-3.056.761L13.36 40zM20 38h-7a7 7 0 0 1-7-7v-4a7 7 0 0 1 7-7h7v4a1 1 0 1 0 2 0v-4.007c7.825-.116 13.156-1.58 16.587-3.076 1.478-.645 2.6-1.294 3.413-1.842V34a1 1 0 1 0 2 0V11a1 1 0 1 1 2 0v36a1 1 0 1 1-2 0v-8a1 1 0 1 0-2 0v3.925c-.814-.548-1.935-1.197-3.413-1.841-3.431-1.498-8.762-2.961-16.587-3.077V29a1 1 0 1 0-2 0v9zM4 27a2 2 0 1 0 0 4v-4z" clip-rule="evenodd"/>
    <path fill="#FF4B1F" fill-rule="evenodd" d="M56.339 18.747a1 1 0 0 0 1.414 1.414l2.828-2.828a1 1 0 1 0-1.414-1.414l-2.828 2.828zM60 29a1 1 0 0 1 1-1h4a1 1 0 1 1 0 2h-4a1 1 0 0 1-1-1zm-3.161 9.34a1 1 0 0 1 1.414 0l2.828 2.828a1 1 0 1 1-1.414 1.414l-2.828-2.829a1 1 0 0 1 0-1.414z" clip-rule="evenodd"/>
</svg>
