<svg xmlns="http://www.w3.org/2000/svg" width="130" height="130" fill="none" viewBox="0 0 130 130">
    <path fill="#FF4B1F" fill-rule="evenodd" d="M65 2C30.206 2 2 30.206 2 65s28.206 63 63 63c11.479 0 22.238-3.069 31.504-8.431a1 1 0 0 1 1.002 1.731C87.943 126.833 76.84 130 65 130c-35.898 0-65-29.101-65-65C0 29.102 29.102 0 65 0c35.899 0 65 29.102 65 65 0 17.584-6.983 33.538-18.326 45.238a.999.999 0 1 1-1.436-1.392C121.234 97.504 128 82.043 128 65c0-34.794-28.206-63-63-63z" clip-rule="evenodd"/>
    <path fill="#FF4B1F" fill-rule="evenodd" d="M65 120c30.376 0 55-24.624 55-55a1 1 0 0 1 2 0c0 31.48-25.52 57-57 57S8 96.48 8 65 33.52 8 65 8c20.744 0 38.898 11.082 48.868 27.643a1 1 0 1 1-1.713 1.032C102.532 20.689 85.014 10 65 10c-30.376 0-55 24.624-55 55s24.624 55 55 55z" clip-rule="evenodd"/>
    <path fill="#fff" d="M54 79.151v-28.42a1 1 0 0 1 1.5-.866l23.09 13.322a1 1 0 0 1 .048 1.703l-23.09 15.098A1 1 0 0 1 54 79.151z"/>
</svg>
