<svg xmlns="http://www.w3.org/2000/svg" width="130" height="128" fill="none" viewBox="0 0 130 128">
    <path fill="#AAB4BF" fill-rule="evenodd" d="M2 24a1 1 0 0 1 1-1h14a1 1 0 1 0 0-2H3a3 3 0 1 0 0 6h121v69a1 1 0 0 1-1 1H81a1 1 0 1 0 0 2h42a3 3 0 0 0 3-3V27h1a3 3 0 1 0 0-6H33a1 1 0 1 0 0 2h94a1 1 0 0 1 0 2H3a1 1 0 0 1-1-1zm4 8a1 1 0 1 0-2 0v64a3 3 0 0 0 3 3h57v2.171a3.001 3.001 0 1 0 2 0V99h8a1 1 0 1 0 0-2H7a1 1 0 0 1-1-1V32zm58 72a1 1 0 1 1 2 0 1 1 0 0 1-2 0zm2-72a1 1 0 1 0-2 0v60a1 1 0 1 0 2 0V32zm9 5a1 1 0 1 0 0 2h40a1 1 0 0 0 0-2H75zm-1 7a1 1 0 0 1 1-1h38a1 1 0 0 1 0 2H75a1 1 0 0 1-1-1zm1 5a1 1 0 1 0 0 2h16a1 1 0 1 0 0-2H75zm-1 13a1 1 0 0 1 1-1h40a1 1 0 0 1 0 2H75a1 1 0 0 1-1-1zm1 5a1 1 0 1 0 0 2h40a1 1 0 0 0 0-2H75zm-1 7a1 1 0 0 1 1-1h32a1 1 0 0 1 0 2H75a1 1 0 0 1-1-1zm1-19a1 1 0 1 0 0 2h40a1 1 0 0 0 0-2H75z" clip-rule="evenodd"/>
    <path fill="#FF4B1F" fill-rule="evenodd" d="M24 38a1 1 0 0 1 1-1h20a1 1 0 0 1 1 1v4a1 1 0 1 1-2 0v-3H26v6h19a1 1 0 1 1 0 2h-9v4h3a1 1 0 0 1 1 1v3h6v-3a1 1 0 0 1 1-1h8a1 1 0 0 1 1 1v8a1 1 0 0 1-1 1h-4a1 1 0 1 1 0-2h3v-6h-6v7a1 1 0 1 1-2 0v-3h-6v3a1 1 0 0 1-1 1h-8a1 1 0 0 1-1-1v-3h-6v3a1 1 0 0 1-1 1h-3v5c0 .033-.002.067-.005.099A5.006 5.006 0 0 1 23.9 70H27a1 1 0 1 1 0 2h-3.1a5.002 5.002 0 0 1-9.9-1c0-2.42 1.72-4.44 4.005-4.901A1.011 1.011 0 0 1 18 66v-5h-3a1 1 0 0 1-1-1v-8a1 1 0 0 1 1-1h8a1 1 0 0 1 1 1v3h6v-3a1 1 0 0 1 1-1h3v-4h-9a1 1 0 0 1-1-1v-8zm-5 30a3 3 0 1 1 0 6 3 3 0 0 1 0-6zm3-9h-6v-6h6v6zm10-3v3h6v-6h-6v3zm0 15a3 3 0 1 1 6 0 3 3 0 0 1-6 0zm3-5a5 5 0 1 0 0 10 5 5 0 0 0 0-10z" clip-rule="evenodd"/>
</svg>
