<svg xmlns="http://www.w3.org/2000/svg" width="64" height="65" fill="none" viewBox="0 0 64 65">
    <circle cx="32" cy="33" r="32" fill="#fff"/>
    <path fill="#F5F0EB" fill-rule="evenodd" d="M9 33c0-12.703 10.297-23 23-23a1 1 0 1 0 0-2C18.193 8 7 19.193 7 33s11.193 25 25 25 25-11.193 25-25a1 1 0 1 0-2 0c0 12.703-10.297 23-23 23S9 45.703 9 33zm4 0c0-10.493 8.507-19 19-19s19 8.507 19 19-8.507 19-19 19c-3.463 0-6.707-.926-9.5-2.542a1 1 0 0 0-1.003 1.731A20.908 20.908 0 0 0 32 54c11.598 0 21-9.402 21-21s-9.402-21-21-21-21 9.402-21 21c0 5.799 2.352 11.05 6.15 14.85a1 1 0 1 0 1.415-1.415A18.937 18.937 0 0 1 13 33z" clip-rule="evenodd"/>
    <path fill="#fff" d="M56 49v-9.64H36.806l10.892-9.64c4.317-3.829 8.236-7.724 8.236-14.393C55.934 5.556 47.566 1 38.932 1 29.767 1 22.062 6.612 21 16.054l10.693 1.452c.464-4.16 2.922-7.065 6.641-7.065 3.52 0 5.844 2.311 5.844 5.613 0 2.839-1.527 5.018-3.852 7.196l-18.33 16.507V49H56z"/>
    <path fill="#FF4B1F" fill-rule="evenodd" d="M20.006 15.942C21.136 5.907 29.351 0 38.932 0c4.476 0 8.952 1.179 12.335 3.697 3.417 2.543 5.667 6.419 5.667 11.63 0 7.15-4.252 11.31-8.572 15.142h-.001l-5.446 4.82a1 1 0 0 1-1.325-1.497l5.445-4.82c4.314-3.827 7.899-7.457 7.899-13.645 0-4.56-1.935-7.848-4.86-10.025C47.113 3.099 43.088 2 38.931 2c-8.426 0-15.408 4.931-16.803 13.198l8.723 1.185c.353-1.823 1.093-3.428 2.202-4.643 1.325-1.452 3.136-2.298 5.28-2.298 1.982 0 3.705.654 4.938 1.85 1.235 1.197 1.906 2.869 1.906 4.762 0 3.257-1.775 5.684-4.168 7.926l-.014.014L22.666 40.5a1 1 0 1 1-1.339-1.487L39.65 22.514c2.252-2.113 3.528-4.042 3.528-6.46 0-1.409-.49-2.543-1.298-3.326-.81-.785-2.009-1.287-3.546-1.287-1.576 0-2.853.606-3.802 1.647-.965 1.057-1.631 2.61-1.846 4.53a1 1 0 0 1-1.128.88l-10.693-1.454a1 1 0 0 1-.859-1.102zm15.8 23.418a1 1 0 0 1 1-1H56a1 1 0 0 1 1 1V49a1 1 0 0 1-1 1H21.996a1 1 0 0 1-1-1v-4.622a1 1 0 1 1 2 0V48H55v-7.64H36.806a1 1 0 0 1-1-1z" clip-rule="evenodd"/>
</svg>
