<svg xmlns="http://www.w3.org/2000/svg" width="64" height="64" fill="none" viewBox="0 0 64 64">
    <rect width="64" height="64" fill="#fff" rx="32"/>
    <path fill="#F5F0EB" fill-rule="evenodd" d="M32 9C19.297 9 9 19.297 9 32c0 2.06.27 4.057.778 5.955a1 1 0 0 1-1.932.516A25.033 25.033 0 0 1 7 32C7 18.193 18.193 7 32 7A24.93 24.93 0 0 1 50.049 14.7a1 1 0 0 1-1.444 1.384A22.93 22.93 0 0 0 32 9zm19.801 9.398a1 1 0 0 1 1.38.314A24.888 24.888 0 0 1 57 32c0 13.807-11.193 25-25 25-6.903 0-13.155-2.8-17.678-7.322a1 1 0 0 1 1.415-1.415A22.925 22.925 0 0 0 32 55c12.703 0 23-10.298 23-23 0-4.493-1.287-8.683-3.513-12.223a1 1 0 0 1 .314-1.379z" clip-rule="evenodd"/>
    <path fill="#F5F0EB" fill-rule="evenodd" d="M32 13c-10.493 0-19 8.507-19 19s8.507 19 19 19 19-8.507 19-19c0-3.185-.783-6.184-2.166-8.819a1 1 0 1 1 1.771-.93A20.913 20.913 0 0 1 53 32c0 11.598-9.402 21-21 21s-21-9.402-21-21 9.402-21 21-21c3.824 0 7.412 1.023 10.502 2.811a1 1 0 0 1-1.001 1.731A18.908 18.908 0 0 0 32 13z" clip-rule="evenodd"/>
    <path fill="#FF4B1F" fill-rule="evenodd" d="M53.38 11.648A2.645 2.645 0 0 1 55.115 11c2.336 0 3.526 2.808 1.9 4.486L30.349 43.013a3 3 0 0 1-4.555-.288l-7.203-9.604A2.953 2.953 0 0 1 18 31.349c0-2.548 3.01-3.9 4.915-2.207l5.093 4.527 2.649-2.3a1 1 0 0 1 1.311 1.511l-3.313 2.875a1 1 0 0 1-1.32-.008l-5.749-5.11a.953.953 0 0 0-1.395 1.284l7.203 9.604a1 1 0 0 0 1.518.096l26.666-27.526a.646.646 0 0 0-.887-.937l-19.41 16.847a1 1 0 0 1-1.312-1.51L53.38 11.647zM47.639 9.25a1 1 0 0 1 1.366-.366l1.732 1a1 1 0 0 1-1 1.732l-1.732-1a1 1 0 0 1-.366-1.366zM58.897 15.75a1 1 0 0 1 1.366-.366l1.732 1a1 1 0 1 1-1 1.732l-1.732-1a1 1 0 0 1-.366-1.366zM58.897 11.25a1 1 0 0 1 .366-1.366l1.732-1a1 1 0 1 1 1 1.732l-1.732 1a1 1 0 0 1-1.366-.366zM55 3a1 1 0 0 1 1 1v4a1 1 0 1 1-2 0V4a1 1 0 0 1 1-1z" clip-rule="evenodd"/>
</svg>
